<svg xmlns="http://www.w3.org/2000/svg" viewBox="0 0 128 128" role="img" aria-labelledby="title">
  <title>Website logo icon</title>
  <rect width="128" height="128" fill="#ffffff"/>
  <g fill="none" stroke="#000000" stroke-width="4">
    <circle cx="44" cy="62" r="28"/>
    <circle cx="84" cy="62" r="28"/>
    <circle cx="64" cy="88" r="28"/>
  </g>
  <path fill="#ddb10f" d="M64 10c-13.807 0-25 11.193-25 25 0 5.168 1.56 9.97 4.23 13.96L64 82l20.77-33.04A24.89 24.89 0 0 0 89 35c0-13.807-11.193-25-25-25Zm0 36c-6.075 0-11-4.925-11-11s4.925-11 11-11 11 4.925 11 11-4.925 11-11 11Z"/>
</svg>
