<svg xmlns="http://www.w3.org/2000/svg" viewBox="0 0 1600 900" role="img" aria-labelledby="title desc">
  <title id="title">Calm evenings illustration</title>
  <desc id="desc">Abstract illustration with dusk-inspired shapes.</desc>
  <defs>
    <linearGradient id="bg" x1="0%" y1="0%" x2="100%" y2="100%">
      <stop offset="0%" stop-color="#161616"/>
      <stop offset="55%" stop-color="#3a3a3a"/>
      <stop offset="100%" stop-color="#666666"/>
    </linearGradient>
  </defs>
  <rect width="1600" height="900" fill="url(#bg)"/>
  <circle cx="1260" cy="240" r="110" fill="rgba(255,255,255,0.18)"/>
  <path d="M0 700C220 610 420 610 620 700s400 90 620 0 360-90 360-90v290H0z" fill="rgba(15,23,42,0.32)"/>
  <path d="M0 760C250 680 410 680 610 760s400 80 620 0 370-80 370-80v220H0z" fill="rgba(15,23,42,0.48)"/>
  <rect x="160" y="170" width="520" height="280" rx="34" fill="rgba(255,255,255,0.08)" stroke="rgba(255,255,255,0.18)"/>
  <rect x="240" y="250" width="260" height="26" rx="13" fill="#ffe082"/>
  <rect x="240" y="315" width="340" height="18" rx="9" fill="rgba(255,224,130,0.86)"/>
  <rect x="240" y="365" width="280" height="18" rx="9" fill="rgba(255,224,130,0.72)"/>
</svg>
